<svg data-v-0dd9719b="" version="1.0" xmlns="http://www.w3.org/2000/svg" xmlns:xlink="http://www.w3.org/1999/xlink" width="100%" height="100%" viewBox="0 0 340.000000 250.000000" preserveAspectRatio="xMidYMid meet" color-interpolation-filters="sRGB" style="margin: auto;"> <rect data-v-0dd9719b="" x="0" y="0" width="100%" height="100%" fill="#ffffff" fill-opacity="1" class="background"></rect> <rect data-v-0dd9719b="" x="0" y="0" width="100%" height="100%" fill="url(#watermark)" fill-opacity="1" class="watermarklayer"></rect> <g data-v-0dd9719b="" fill="#5da62d" class="icon-text-wrapper icon-svg-group iconsvg" transform="translate(47.12000274658203,95.47418403625488)"><g class="iconsvg-imagesvg" transform="translate(0,0)"><g><rect fill="#5da62d" fill-opacity="0" stroke-width="2" x="0" y="0" width="60" height="59.051630809204184" class="image-rect"></rect> <svg filter="url(#colors5804081397)" x="0" y="0" width="60" height="59.051630809204184" filtersec="colorsf773175525" class="image-svg-svg primary" style="overflow: visible;"><svg xmlns="http://www.w3.org/2000/svg" xmlns:xlink="http://www.w3.org/1999/xlink" version="1.1" x="0px" y="0px" viewBox="4.065000057220459 5.267000198364258 151.87013244628906 149.4700164794922" xml:space="preserve"><path d="M38.165,131.193c1.381,0,2.5-1.119,2.5-2.5v-6.244c0-1.381-1.119-2.5-2.5-2.5s-2.5,1.119-2.5,2.5v6.244  C35.665,130.074,36.784,131.193,38.165,131.193z"></path><path d="M59.082,131.193c1.381,0,2.5-1.119,2.5-2.5v-6.244c0-1.381-1.119-2.5-2.5-2.5s-2.5,1.119-2.5,2.5v6.244  C56.582,130.074,57.702,131.193,59.082,131.193z"></path><path d="M80,119.949c-1.381,0-2.5,1.119-2.5,2.5v6.244c0,1.381,1.119,2.5,2.5,2.5s2.5-1.119,2.5-2.5v-6.244  C82.5,121.068,81.381,119.949,80,119.949z"></path><path d="M100.705,131.193c1.381,0,2.5-1.119,2.5-2.5v-6.244c0-1.381-1.119-2.5-2.5-2.5s-2.5,1.119-2.5,2.5v6.244  C98.205,130.074,99.325,131.193,100.705,131.193z"></path><path d="M121.411,119.949c-1.381,0-2.5,1.119-2.5,2.5v6.244c0,1.381,1.119,2.5,2.5,2.5s2.5-1.119,2.5-2.5v-6.244  C123.911,121.068,122.791,119.949,121.411,119.949z"></path><path d="M152.435,134.464h-16.642v-17.85c7.133-0.504,13.71-4.198,17.836-10.107l1.675-2.396c0.781-1.117,0.842-2.587,0.156-3.766  c-0.687-1.178-1.994-1.856-3.352-1.724l-5.351,0.501c-7.535,0.699-15.104-2.213-20.213-7.813c-0.663-0.727-1.602-1.141-2.586-1.141  h-9.252v-8.469h13.609c7.77,0,15.063-3.803,19.513-10.173l1.674-2.397c0.781-1.118,0.842-2.587,0.155-3.765  c-0.687-1.178-1.994-1.852-3.351-1.724l-5.35,0.501c-7.547,0.704-15.104-2.213-20.214-7.813c-0.663-0.727-1.602-1.141-2.586-1.141  h-3.451v-8.468h0.426c7.769,0,15.063-3.803,19.514-10.173l1.674-2.397c0.78-1.118,0.841-2.587,0.154-3.765  c-0.687-1.178-1.982-1.854-3.352-1.723l-5.349,0.501c-7.548,0.709-15.104-2.213-20.215-7.813c-0.663-0.727-1.602-1.141-2.585-1.141  h-4.785l-6.073-3.092c-4.572-2.328-8.428-5.857-11.15-10.207C82.327,5.888,81.206,5.267,80,5.267s-2.327,0.621-2.967,1.643  c-2.722,4.35-6.578,7.879-11.15,10.207l-6.073,3.092h-4.785c-0.984,0-1.922,0.414-2.585,1.141c-5.11,5.601-12.67,8.522-20.214,7.813  l-5.35-0.501c-1.356-0.127-2.665,0.545-3.351,1.724s-0.625,2.647,0.155,3.765l1.674,2.397c4.449,6.37,11.744,10.173,19.513,10.173  h0.426v8.468h-3.45c-0.984,0-1.922,0.414-2.585,1.141c-5.109,5.6-12.666,8.517-20.215,7.813l-5.349-0.501  c-1.353-0.125-2.665,0.545-3.351,1.724s-0.625,2.648,0.155,3.766l1.674,2.396c4.449,6.37,11.743,10.173,19.513,10.173h13.609v8.469  h-9.251c-0.984,0-1.922,0.414-2.585,1.141c-5.11,5.601-12.662,8.515-20.215,7.813l-5.349-0.501  c-1.348-0.129-2.665,0.546-3.351,1.724c-0.686,1.178-0.625,2.647,0.156,3.766l1.674,2.396c4.127,5.909,10.704,9.604,17.836,10.108  v17.85H7.565c-1.933,0-3.5,1.567-3.5,3.5v13.27c0,1.933,1.567,3.5,3.5,3.5H80h72.435c1.933,0,3.5-1.567,3.5-3.5v-13.27  C155.935,136.031,154.368,134.464,152.435,134.464z M48.623,141.464h3.848v6.27H35.442v-6.27H48.623z M32.96,105.12  c8.463,0.72,16.908-2.227,23.114-7.952H80h23.926c6.204,5.724,14.644,8.661,23.114,7.952c-1.972,2.081-4.416,3.628-7.097,4.559  h-8.566H90.458H80H69.541H48.623h-8.566C37.377,108.748,34.932,107.201,32.96,105.12z M39.761,70.141  c8.466,0.714,16.909-2.228,23.114-7.953H80h18.125c6.205,5.725,14.651,8.669,23.114,7.953c-1.972,2.081-4.416,3.628-7.097,4.559H80  H46.858C44.178,73.768,41.733,72.221,39.761,70.141z M80,27.208h7.635c6.204,5.721,14.639,8.665,23.104,7.952  c-1.972,2.081-4.417,3.629-7.098,4.559H80H56.358c-2.681-0.93-5.126-2.478-7.098-4.559c8.463,0.713,16.899-2.231,23.104-7.953H80z   M80,46.719h6.958v8.468H80h-6.959v-8.468H80z M80,81.699h6.958v8.469H80h-6.959v-8.469H80z M107.876,134.464H93.958v-17.785h13.918  V134.464z M80,134.464h-6.959v-17.785H80h6.958v17.785H80z M52.123,116.678h13.917v17.785H52.123V116.678z M59.471,141.464h10.07  H76.5v6.27H59.471V141.464z M83.5,141.464h6.958h10.07v6.27H83.5V141.464z M107.529,141.464h3.848h13.182v6.27h-17.029V141.464z   M114.876,134.464v-17.785h13.917v17.785H114.876z M144.32,106.224c-2.894,2.211-6.471,3.454-10.202,3.454h-1.824h-2.777  c1.218-1.116,2.328-2.364,3.293-3.745l1.097-1.57C137.228,105.559,140.752,106.2,144.32,106.224z M126.003,100.171  c-4.732,0.282-9.426-0.788-13.535-3.004h10.002C123.576,98.261,124.758,99.263,126.003,100.171z M107.707,90.168H93.958v-8.469  h13.749V90.168z M138.519,71.245c-2.894,2.21-6.471,3.454-10.202,3.454h-4.601c1.218-1.116,2.329-2.364,3.294-3.746l1.096-1.57  C131.428,70.58,134.951,71.221,138.519,71.245z M120.203,65.192c-4.726,0.282-9.422-0.789-13.533-3.004h9.999  C117.775,63.281,118.958,64.283,120.203,65.192z M107.707,55.188H93.958v-8.468h13.749V55.188z M125.336,36.265  c-2.895,2.211-6.472,3.454-10.203,3.454h-1.917c1.218-1.116,2.329-2.364,3.294-3.746l0.612-0.876  C119.783,35.841,122.545,36.246,125.336,36.265z M107.046,30.23c-3.818-0.178-7.541-1.222-10.879-3.022h3.172  c0.003,0,0.006,0.001,0.008,0.001c0.005,0,0.009-0.001,0.014-0.001h4.124C104.599,28.309,105.791,29.317,107.046,30.23z M80,14.688  c1.744,2.062,3.724,3.909,5.889,5.52H80h-5.889C76.275,18.597,78.256,16.751,80,14.688z M56.514,27.208h7.315  c-3.337,1.798-7.058,2.84-10.872,3.02C54.211,29.315,55.401,28.308,56.514,27.208z M34.663,36.265  c2.791-0.019,5.552-0.424,8.214-1.168l0.613,0.877c0.965,1.381,2.076,2.629,3.294,3.745h-1.918  C41.134,39.719,37.557,38.476,34.663,36.265z M52.292,46.719h13.749v8.468H52.292V46.719z M43.331,62.188h10.996  c-4.357,2.346-9.369,3.418-14.379,2.95l-0.067-0.006C41.096,64.239,42.25,63.257,43.331,62.188z M21.48,71.245  c3.852-0.027,7.65-0.78,11.201-2.166l1.309,1.875c0.965,1.381,2.076,2.629,3.294,3.745h-5.601  C27.951,74.699,24.374,73.456,21.48,71.245z M52.292,81.699h13.749v8.469H52.292V81.699z M37.53,97.168h10.001  c-4.109,2.215-8.803,3.285-13.535,3.004C35.241,99.263,36.424,98.261,37.53,97.168z M26.093,104.363l1.097,1.57  c0.965,1.381,2.076,2.629,3.294,3.745h-2.777h-1.824c-3.732,0-7.308-1.243-10.202-3.454C19.247,106.2,22.771,105.559,26.093,104.363  z M31.206,116.678h13.917v17.785H31.206V116.678z M11.065,141.464h16.641h0.736v6.27H11.065V141.464z M148.935,147.733h-17.377  v-6.27h0.735h16.642V147.733z"></path></svg></svg> <defs><filter id="colors5804081397"><feColorMatrix type="matrix" values="0 0 0 0 0.36328125  0 0 0 0 0.6484375  0 0 0 0 0.17578125  0 0 0 1 0" class="icon-fecolormatrix"></feColorMatrix></filter> <filter id="colorsf773175525"><feColorMatrix type="matrix" values="0 0 0 0 0.99609375  0 0 0 0 0.99609375  0 0 0 0 0.99609375  0 0 0 1 0" class="icon-fecolormatrix"></feColorMatrix></filter> <filter id="colorsb9261166352"><feColorMatrix type="matrix" values="0 0 0 0 0  0 0 0 0 0  0 0 0 0 0  0 0 0 1 0" class="icon-fecolormatrix"></feColorMatrix></filter></defs></g></g> <g transform="translate(67,2.399566650390625)"><g data-gra="path-name" fill-rule="" class="tp-name iconsvg-namesvg" transform="translate(0,0)"><g transform="scale(1)"><g><path d="M4.13-26.19L4.13-32.07 17.98-32.07 17.98-26.19 4.13-26.19ZM4.13-15.53L9.03-15.53 9.03-3.35 11.17-3.62 11.17-17.44 2.14-17.44 2.14-23.94 20.2-23.94 19.5-33.08 24.83-33.51 25.14-29.42 29.62-33.04 34.17-27.36 29.89-23.94 33.63-23.94 33.63-17.47 26.04-17.47 27.2-2.45 29.11-2.61 30.2-6.73 34.64-5.57 31.91 4.75 31.91 4.79 22.42 5.53 22.42 5.45 20.67-17.47 16.54-17.47 16.54-14.4 19.46-14.4 19.46-7.74 16.54-7.74 16.54-4.32 20.35-4.79 21.29 2.34 2.3 4.75 1.36-2.37 4.13-2.72 4.13-15.53ZM25.18-29.19L25.57-23.94 29.38-23.94 25.18-29.19ZM55.07-21.95L58.46-16.74 62.5-24.75 50.52-24.75 50.52-31.68 68.85-31.68 68.85-24.75 62.04-11.21 70.56 2.02 64.99 5.64 58.65-4.2 53.79 5.45 48.26 2.65 54.72-10.24 49.5-18.33 55.07-21.95ZM42.42-23.74L38.96-28.99 46.12-33.66 49.58-28.41 42.42-23.74ZM40.9-12.61L37.48-17.9 44.64-22.57 48.06-17.28 40.9-12.61ZM43.47 4.75L38.02 2.37 43.43-10 48.84-7.63 43.47 4.75ZM78.11 4.36L72.9 1.36 80.1-11.13 85.31-8.13 78.11 4.36ZM101.81 4.01L95.2-8.06 100.45-10.94 107.1 1.13 101.81 4.01ZM104.96-18.02L104.96-11.68 94.11-11.68 94.11 5.14 84.84 5.14 84.84-1.79 88.07-1.79 88.07-11.68 75.78-11.68 77.02-31.25 103.1-33.16 103.6-26.19 82.82-24.67 82.39-18.02 88.07-18.02 88.07-23.74 94.11-23.74 94.11-18.02 104.96-18.02ZM131.2 0.08L133.14 0.08 133.14-2.69 126.21-2.69 129.29-0.16 125.55 4.4 120.61 0.31 123.06-2.69 118.86-2.69 118.86-7.86 133.14-7.86 133.14-8.87 138.59-8.87 138.59-7.86 142.4-7.86 142.4-2.69 138.59-2.69 138.59 5.57 131.2 5.57 131.2 0.08ZM127.65-33.43L132.99-33.43 132.99-30.71 134.97-30.71 134.7-33 139.56-33.59 139.87-30.71 141.7-30.71 141.7-25.73 132.99-25.73 132.99-24.52 140.5-24.52 140.5-9.3 135.48-9.3 135.48-10.78 132.99-10.78 132.99-9.57 127.65-9.57 127.65-10.78 124.93-10.78 124.93-8.83 119.99-8.83 119.99-24.52 127.65-24.52 127.65-25.73 119.44-25.73 119.44-30.71 127.65-30.71 127.65-33.43ZM124.93-20.74L124.93-19.42 127.65-19.42 127.65-20.74 124.93-20.74ZM124.93-14.4L127.65-14.4 127.65-15.8 124.93-15.8 124.93-14.4ZM135.48-14.4L135.48-15.8 132.99-15.8 132.99-14.4 135.48-14.4ZM135.48-20.74L132.99-20.74 132.99-19.42 135.48-19.42 135.48-20.74ZM111.93 5.33L111.93-18.33 109.6-18.33 109.6-25.06 111.93-25.06 111.93-33.39 117.3-33.39 117.3-25.06 118.59-25.06 118.59-18.33 117.3-18.33 117.3 5.33 111.93 5.33ZM177.51-21.02L171.9-21.02 180.12-4.9 175.1-2.34 171.59-9.22 171.59 5.45 165.95 5.45 165.95-8.87 162.41-1.48 157.47-3.85 161.36-11.95 158.87-9.69 157-11.75 157 5.45 151.39 5.45 151.39-9.22 148.86-4.01 143.92-6.38 150.93-21.02 146.88-21.02 146.88-27.59 151.39-27.59 151.39-33.43 157-33.43 157-27.59 160.31-27.59 160.31-21.02 157-21.02 157-20.16 162.41-14.17 165.68-21.02 161.67-21.02 161.67-27.59 165.95-27.59 165.95-33.43 171.59-33.43 171.59-27.59 177.51-27.59 177.51-21.02Z" transform="translate(-1.3600000143051147, 33.65999984741211)"></path></g> <!----> <!----> <!----> <!----> <!----> <!----> <!----></g></g> <g data-gra="path-slogan" fill-rule="" class="tp-slogan iconsvg-slogansvg" fill="#234975" transform="translate(5,45.29999923706055)"><rect x="0" height="1" y="3.9750003814697266" width="32.41999816894531"></rect> <rect height="1" y="3.9750003814697266" width="32.41999816894531" x="136.33999633789062"></rect> <g transform="translate(35.41999816894531,0)"><g transform="scale(1)"><path d="M5.67-7.13L5.63-7.13L3.66 0L2.44 0L0.19-8.58L1.41-8.58L3.05-1.59L3.09-1.59L5.02-8.58L6.28-8.58L8.20-1.59L8.25-1.59L9.84-8.58L11.11-8.58L8.86 0L7.64 0L5.67-7.13ZM17.86-3.19L17.86-8.58L19.03-8.58L19.03-3.05Q18.89 0.05 15.52 0.14L15.52 0.14Q12.38 0.05 12.23-2.86L12.23-2.86L12.23-8.58L13.41-8.58L13.41-3.19Q13.45-0.84 15.56-0.80L15.56-0.80Q17.86-0.84 17.86-3.19L17.86-3.19ZM21.98-5.06L26.48-5.06L26.48-8.58L27.66-8.58L27.66 0L26.48 0L26.48-3.98L21.98-3.98L21.98 0L20.81 0L20.81-8.58L21.98-8.58L21.98-5.06ZM35.11 0L34.27-2.48L30.80-2.48L29.91 0L28.73 0L31.97-8.58L33.28-8.58L36.38 0L35.11 0ZM32.53-7.31L31.17-3.52L33.84-3.52L32.58-7.31L32.53-7.31ZM38.81-8.58L43.13-1.64L43.13-8.58L44.25-8.58L44.25 0L42.94 0L38.58-6.94L38.53-6.94L38.53 0L37.41 0L37.41-8.58L38.81-8.58ZM49.36-8.58L50.53-8.58L50.53-1.03L54.89-1.03L54.89 0L49.36 0L49.36-8.58ZM57.33-1.03L62.48-1.03L62.48 0L56.16 0L56.16-8.58L62.39-8.58L62.39-7.59L57.33-7.59L57.33-4.92L62.02-4.92L62.02-3.89L57.33-3.89L57.33-1.03ZM67.22-7.64L65.16-7.64L65.16-4.97L67.22-4.97Q69.05-4.92 69-6.38L69-6.38Q69-7.64 67.22-7.64L67.22-7.64ZM67.69 0L63.98 0L63.98-8.58L67.78-8.58Q70.08-8.48 70.17-6.42L70.17-6.42Q70.17-5.16 69.05-4.64L69.05-4.64Q70.64-4.08 70.64-2.53L70.64-2.53Q70.50-0.09 67.69 0L67.69 0ZM67.41-3.98L65.16-3.98L65.16-0.98L67.64-0.98Q69.42-1.03 69.47-2.53L69.47-2.53Q69.47-3.98 67.41-3.98L67.41-3.98ZM78.75-4.27L78.75-4.27Q78.56-7.64 75.75-7.83L75.75-7.83Q72.89-7.69 72.75-4.27L72.75-4.27Q72.89-0.94 75.75-0.80L75.75-0.80Q78.56-0.98 78.75-4.27ZM79.92-4.27L79.92-4.27Q79.64 0 75.75 0.14L75.75 0.14Q71.81 0 71.53-4.27L71.53-4.27Q71.77-8.72 75.75-8.81L75.75-8.81Q79.64-8.67 79.92-4.27ZM81.28-8.58L82.45-8.58L82.45-1.03L86.81-1.03L86.81 0L81.28 0L81.28-8.58ZM88.13-8.58L89.30-8.58L89.30 0L88.13 0L88.13-8.58ZM92.67-8.58L96.98-1.64L96.98-8.58L98.11-8.58L98.11 0L96.80 0L92.44-6.94L92.39-6.94L92.39 0L91.27 0L91.27-8.58L92.67-8.58Z" transform="translate(-0.1875, 8.8125)"></path></g></g></g></g></g><defs v-gra="od"></defs></svg>